<svg xmlns="http://www.w3.org/2000/svg" viewBox="0 0 124 42"><defs><style>.a{fill:#e13a3e;}</style></defs><title>alkermes-mobile-logo</title><path class="a" d="M6.093,33.822C1.808,31.737,1.229,23.978,4.935,16.45,8.525,9.039,15.01,4.754,19.3,6.838c2.547,1.274,3.937,4.633,3.937,8.686.463-4.98-.811-9.033-3.937-10.538C14.431,2.554,7.251,7.418,3.082,15.756-.972,24.094-.393,32.779,4.471,35.1c3.011,1.506,7.065.116,10.655-3.242C12,34.285,8.525,35.1,6.093,33.822Z"/><path d="M11.651,20.851l3.938-5.674.579,5.674ZM9.914,23.283h6.6l.232,2.432-1.274.232-.926,2.316H21.5l.579-2.316-.7-.116-.116-1.042-1.737-14.36H16.052L6.208,24.789l-.926,1.042-.811.116-.926,2.316h5.1l.579-2.316-1.042-.116,1.737-2.548Z"/><polygon points="27.285 11.934 26.359 11.818 26.938 9.386 33.192 9.27 31.802 12.976 28.096 24.789 27.864 25.831 28.907 25.947 28.212 28.263 22.074 28.263 23.348 24.789 27.054 12.976 27.285 11.934"/><path d="M36.55,22.009h-.579L34,28.263H29.138l1.274-3.474,3.822-11.813.231-1.042-1.042-.116.7-2.316,6.254-.116-1.39,3.706L36.434,21.2h.579a9.357,9.357,0,0,0,2.085-1.39A4.152,4.152,0,0,0,41.066,16.8a1.9,1.9,0,0,0-.231-1.621l4.748-.116a1.965,1.965,0,0,1,.116.81c-.232,2.2-3.011,4.17-4.864,5.328l2.2,4.748.811.115-.579,2.2h-4.4L36.55,22.009Z"/><path d="M49.52,21.314c.348-1.273,1.622-3.937,3.127-3.937.811,0,1.042.579.927,1.39a2.8,2.8,0,0,1-1.506,2.084,4.99,4.99,0,0,1-2.548.463Zm7.759,2.78a14.867,14.867,0,0,1-6.137,1.737c-1.39,0-2.432-.579-2.2-2.085,3.359.116,8.57-2.084,9.033-6.022a2.22,2.22,0,0,0-.926-2.2,3.867,3.867,0,0,0-2.548-.695,9.991,9.991,0,0,0-6.833,3.011,12.092,12.092,0,0,0-3.59,6.485c-.347,3.127,2.317,4.4,4.98,4.4a19.461,19.461,0,0,0,7.18-1.5l1.042-3.127Z"/><path d="M64,20.735h.348c1.158-2.316,4.169-5.906,6.948-5.906a1.165,1.165,0,0,1,1.042.348l-2.2,4.284A1.488,1.488,0,0,0,68.976,19c-2.085,0-4.4,3.011-5.559,4.633L61.8,28.263H56.932l1.39-3.822,1.968-6.369.116-.579-.926-.116.579-2.316,6.138-.116L64,20.735Z"/><path d="M76.272,20.735h.347a15.582,15.582,0,0,1,2.548-3.59c1.042-1.042,3.011-2.316,4.4-2.316a1.931,1.931,0,0,1,1.968,2.316c-.115.464-.347,1.158-.463,1.622l-.695,1.968h.348a16.713,16.713,0,0,1,2.663-3.7,7.142,7.142,0,0,1,4.517-2.317,2.124,2.124,0,0,1,1.969,2.548c-.116.579-.232,1.042-.348,1.621l-1.853,5.791-.231,1.042,1.042.116-.579,2.316H86l1.274-3.474,1.5-4.4c.347-1.274.347-1.621-.116-1.621-1.042,0-3.706,3.474-4.4,4.4L83.8,23.4l-1.621,4.864H77.661l1.159-3.474,1.505-4.4c.463-1.506.116-1.621,0-1.621-1.042,0-3.706,3.474-4.4,4.4l-.231.232-1.506,4.864H69.671l1.274-3.474,1.968-6.254.232-1.042L72.1,17.377l.7-2.316,5.79-.116-2.316,5.79Z"/><path d="M98.391,21.314c.347-1.273,1.621-3.937,3.127-3.937.81,0,1.042.579,1.042,1.39a2.8,2.8,0,0,1-1.5,2.084,5.21,5.21,0,0,1-2.664.463Zm7.875,2.78a14.871,14.871,0,0,1-6.138,1.737c-1.39,0-2.432-.579-2.2-2.085,3.358.116,8.57-2.084,9.033-6.022a2.221,2.221,0,0,0-.927-2.2,3.866,3.866,0,0,0-2.547-.695,9.991,9.991,0,0,0-6.833,3.011,12.086,12.086,0,0,0-3.59,6.485c-.348,3.127,2.316,4.4,5.1,4.4a19.461,19.461,0,0,0,7.18-1.5l.927-3.127Z"/><path d="M116.573,17.377a3.4,3.4,0,0,0-1.158-.347,1.515,1.515,0,0,0-1.622,1.158c-.115.926.811,1.621,1.39,2.084,1.158,1.042,2.548,2.085,2.316,3.938a4.9,4.9,0,0,1-2.316,3.358A8.1,8.1,0,0,1,110.9,28.61a17.258,17.258,0,0,1-4.98-.81l1.274-3.59,2.316.115-.231,1.39a3.552,3.552,0,0,0,1.969.463,1.686,1.686,0,0,0,1.853-1.389c.115-.927-.7-1.506-1.159-1.969-1.042-1.042-2.432-2.2-2.2-3.938a4.511,4.511,0,0,1,2.432-3.358,9.131,9.131,0,0,1,4.285-.811,21.293,21.293,0,0,1,3.822.348l-1.274,3.59-2.316-.116-.116-1.158Z"/><path d="M122.247,14.945a1.506,1.506,0,1,0,1.506,1.5,1.533,1.533,0,0,0-1.506-1.5Zm0,.232a1.245,1.245,0,0,1,1.158,1.158,1.094,1.094,0,0,1-1.158,1.158,1.245,1.245,0,0,1-1.158-1.158,1.16,1.16,0,0,1,1.158-1.158Zm-.347,1.389h.116c.231,0,.347.116.347.232,0,.232.116.347.116.463h.347a1.833,1.833,0,0,0-.115-.463c0-.232-.116-.348-.232-.348h0a.369.369,0,0,0,.347-.347.425.425,0,0,0-.115-.347c-.116-.116-.232-.116-.579-.116h-.58v1.621h.348v-.7Zm0-.695h.231c.232,0,.348.116.348.232s-.116.232-.348.232h-.115v-.464Z"/></svg>